<svg width="14" height="14" viewBox="0 0 14 14" fill="white" xmlns="http://www.w3.org/2000/svg">
<path d="M9.75 3.87207V3.12207C9.75 3.05332 9.69375 2.99707 9.625 2.99707H3.625C3.55625 2.99707 3.5 3.05332 3.5 3.12207V3.87207C3.5 3.94082 3.55625 3.99707 3.625 3.99707H9.625C9.69375 3.99707 9.75 3.94082 9.75 3.87207ZM3.625 5.24707C3.55625 5.24707 3.5 5.30332 3.5 5.37207V6.12207C3.5 6.19082 3.55625 6.24707 3.625 6.24707H6.5C6.56875 6.24707 6.625 6.19082 6.625 6.12207V5.37207C6.625 5.30332 6.56875 5.24707 6.5 5.24707H3.625ZM9.5 7.05957C7.63594 7.05957 6.125 8.57051 6.125 10.4346C6.125 12.2986 7.63594 13.8096 9.5 13.8096C11.3641 13.8096 12.875 12.2986 12.875 10.4346C12.875 8.57051 11.3641 7.05957 9.5 7.05957ZM11.1797 12.1143C10.7313 12.5627 10.1344 12.8096 9.5 12.8096C8.86563 12.8096 8.26875 12.5627 7.82031 12.1143C7.37188 11.6658 7.125 11.0689 7.125 10.4346C7.125 9.8002 7.37188 9.20332 7.82031 8.75488C8.26875 8.30645 8.86563 8.05957 9.5 8.05957C10.1344 8.05957 10.7313 8.30645 11.1797 8.75488C11.6281 9.20332 11.875 9.8002 11.875 10.4346C11.875 11.0689 11.6281 11.6658 11.1797 12.1143ZM10.8906 9.24707H10.1984C10.1578 9.24707 10.1203 9.26582 10.0969 9.29863L9.10469 10.6705L8.74375 10.1721C8.73219 10.156 8.71693 10.1429 8.69925 10.1339C8.68158 10.1249 8.66201 10.1203 8.64219 10.1205H7.95313C7.85156 10.1205 7.79219 10.2361 7.85156 10.3189L9.00469 11.9143C9.05469 11.983 9.15625 11.983 9.20625 11.9143L10.9906 9.44551C11.0516 9.3627 10.9922 9.24707 10.8906 9.24707ZM5.875 12.3096H2.25V1.30957H11V6.68457C11 6.75332 11.0563 6.80957 11.125 6.80957H12C12.0688 6.80957 12.125 6.75332 12.125 6.68457V0.68457C12.125 0.408008 11.9016 0.18457 11.625 0.18457H1.625C1.34844 0.18457 1.125 0.408008 1.125 0.68457V12.9346C1.125 13.2111 1.34844 13.4346 1.625 13.4346H5.875C5.94375 13.4346 6 13.3783 6 13.3096V12.4346C6 12.3658 5.94375 12.3096 5.875 12.3096Z" fill="white"/>
</svg>
