<svg width="14" height="15" viewBox="0 0 14 15" fill="none" xmlns="http://www.w3.org/2000/svg">
<path d="M13.4492 9.28159L12.4258 8.40659C12.4742 8.10972 12.4992 7.80659 12.4992 7.50347C12.4992 7.20034 12.4742 6.89722 12.4258 6.60034L13.4492 5.72534C13.5264 5.65926 13.5817 5.57124 13.6076 5.473C13.6336 5.37475 13.629 5.27093 13.5945 5.17534L13.5805 5.13472C13.2987 4.34726 12.8768 3.61727 12.3352 2.98003L12.307 2.94722C12.2413 2.86995 12.1537 2.81441 12.0558 2.78792C11.9579 2.76142 11.8543 2.76521 11.7586 2.79878L10.4883 3.25034C10.0195 2.86597 9.4961 2.56284 8.93047 2.35034L8.68516 1.02222C8.66665 0.922283 8.61817 0.830346 8.54617 0.75862C8.47416 0.686894 8.38204 0.638774 8.28203 0.620654L8.23985 0.612842C7.42578 0.465967 6.56953 0.465967 5.75547 0.612842L5.71328 0.620654C5.61328 0.638774 5.52115 0.686894 5.44915 0.75862C5.37714 0.830346 5.32867 0.922283 5.31016 1.02222L5.06328 2.35659C4.50217 2.56914 3.97964 2.8721 3.51641 3.25347L2.23672 2.79878C2.14104 2.76494 2.03733 2.76101 1.93937 2.78753C1.84141 2.81404 1.75383 2.86974 1.68828 2.94722L1.66016 2.98003C1.11914 3.61772 0.697309 4.34759 0.414847 5.13472L0.400784 5.17534C0.330472 5.37065 0.388284 5.5894 0.546097 5.72534L1.58203 6.60972C1.5336 6.90347 1.51016 7.20347 1.51016 7.5019C1.51016 7.8019 1.5336 8.1019 1.58203 8.39409L0.546097 9.27847C0.468903 9.34455 0.413654 9.43257 0.387697 9.53081C0.36174 9.62906 0.366305 9.73288 0.400784 9.82847L0.414847 9.86909C0.697659 10.6566 1.11641 11.3832 1.66016 12.0238L1.68828 12.0566C1.75399 12.1339 1.84157 12.1894 1.93948 12.2159C2.03738 12.2424 2.14101 12.2386 2.23672 12.205L3.51641 11.7503C3.98203 12.1332 4.50235 12.4363 5.06328 12.6472L5.31016 13.9816C5.32867 14.0815 5.37714 14.1735 5.44915 14.2452C5.52115 14.3169 5.61328 14.365 5.71328 14.3832L5.75547 14.391C6.57701 14.5386 7.4183 14.5386 8.23985 14.391L8.28203 14.3832C8.38204 14.365 8.47416 14.3169 8.54617 14.2452C8.61817 14.1735 8.66665 14.0815 8.68516 13.9816L8.93047 12.6535C9.49587 12.4415 10.0223 12.1374 10.4883 11.7535L11.7586 12.205C11.8543 12.2389 11.958 12.2428 12.0559 12.2163C12.1539 12.1898 12.2415 12.1341 12.307 12.0566L12.3352 12.0238C12.8789 11.3816 13.2977 10.6566 13.5805 9.86909L13.5945 9.82847C13.6648 9.63628 13.607 9.41753 13.4492 9.28159ZM11.3164 6.78472C11.3555 7.02065 11.3758 7.26284 11.3758 7.50503C11.3758 7.74722 11.3555 7.9894 11.3164 8.22534L11.2133 8.8519L12.3805 9.85034C12.2035 10.258 11.9802 10.6439 11.7148 11.0003L10.2648 10.4863L9.77422 10.8894C9.40078 11.1957 8.98516 11.4363 8.53516 11.605L7.93985 11.8285L7.66016 13.3441C7.21886 13.3941 6.77333 13.3941 6.33203 13.3441L6.05235 11.8253L5.46172 11.5988C5.01641 11.43 4.60235 11.1894 4.23203 10.8847L3.74141 10.48L2.28203 10.9988C2.01641 10.641 1.79453 10.255 1.61641 9.84878L2.7961 8.84097L2.69453 8.21597C2.65703 7.98315 2.63672 7.74253 2.63672 7.50503C2.63672 7.26597 2.65547 7.0269 2.69453 6.79409L2.7961 6.16909L1.61641 5.16128C1.79297 4.75347 2.01641 4.36909 2.28203 4.01128L3.74141 4.53003L4.23203 4.12534C4.60235 3.82065 5.01641 3.58003 5.46172 3.41128L6.05391 3.18784L6.3336 1.66909C6.77266 1.61909 7.2211 1.61909 7.66172 1.66909L7.94141 3.18472L8.53672 3.40815C8.98516 3.5769 9.40235 3.81753 9.77578 4.12378L10.2664 4.5269L11.7164 4.01284C11.982 4.37065 12.2039 4.75659 12.382 5.16284L11.2148 6.16128L11.3164 6.78472ZM6.99922 4.59878C5.48047 4.59878 4.24922 5.83003 4.24922 7.34878C4.24922 8.86753 5.48047 10.0988 6.99922 10.0988C8.51797 10.0988 9.74922 8.86753 9.74922 7.34878C9.74922 5.83003 8.51797 4.59878 6.99922 4.59878ZM8.23672 8.58628C8.07441 8.74906 7.88152 8.87813 7.66914 8.96609C7.45676 9.05404 7.22909 9.09914 6.99922 9.09878C6.53203 9.09878 6.09297 8.91597 5.76172 8.58628C5.59895 8.42397 5.46987 8.23108 5.38191 8.0187C5.29396 7.80632 5.24886 7.57865 5.24922 7.34878C5.24922 6.88159 5.43203 6.44253 5.76172 6.11128C6.09297 5.78003 6.53203 5.59878 6.99922 5.59878C7.46641 5.59878 7.90547 5.78003 8.23672 6.11128C8.3995 6.27359 8.52858 6.46648 8.61653 6.67886C8.70448 6.89124 8.74958 7.11891 8.74922 7.34878C8.74922 7.81597 8.56641 8.25503 8.23672 8.58628Z" fill="#E7E7E9"/>
</svg>
